  0
SECTION
  2
HEADER
  9
$ACADVER
  1
AC1014
  9
$HANDSEED
  5
FFFF
  9
$MEASUREMENT
 70
     1
  0
ENDSEC
  0
SECTION
  2
TABLES
  0
TABLE
  2
VPORT
  5
8
330
0
100
AcDbSymbolTable
 70
     4
  0
VPORT
  5
2E
330
8
100
AcDbSymbolTableRecord
100
AcDbViewportTableRecord
  2
*ACTIVE
 70
     0
 10
0.0
 20
0.0
 11
1.0
 21
1.0
 12
210.0
 22
148.5
 13
0.0
 23
0.0
 14
10.0
 24
10.0
 15
10.0
 25
10.0
 16
0.0
 26
0.0
 36
1.0
 17
0.0
 27
0.0
 37
0.0
 40
341.0
 41
1.24
 42
50.0
 43
0.0
 44
0.0
 50
0.0
 51
0.0
 71
     0
 72
   100
 73
     1
 74
     3
 75
     0
 76
     0
 77
     0
 78
     0
  0
ENDTAB
  0
TABLE
  2
LTYPE
  5
5
330
0
100
AcDbSymbolTable
 70
     1
  0
LTYPE
  5
14
330
5
100
AcDbSymbolTableRecord
100
AcDbLinetypeTableRecord
  2
BYBLOCK
 70
     0
  3

 72
    65
 73
     0
 40
0.0
  0
LTYPE
  5
15
330
5
100
AcDbSymbolTableRecord
100
AcDbLinetypeTableRecord
  2
BYLAYER
 70
     0
  3

 72
    65
 73
     0
 40
0.0
  0
LTYPE
  5
16
330
5
100
AcDbSymbolTableRecord
100
AcDbLinetypeTableRecord
  2
CONTINUOUS
 70
     0
  3
Solid line
 72
    65
 73
     0
 40
0.0
  0
ENDTAB
  0
TABLE
  2
LAYER
  5
2
100
AcDbSymbolTable
 70
2
  0
LAYER
  5
50
100
AcDbSymbolTableRecord
100
AcDbLayerTableRecord
  2
0
 70
0
  6
CONTINUOUS
  0
LAYER
  5
51
100
AcDbSymbolTableRecord
100
AcDbLayerTableRecord
  2
main
 70
0
  6
CONTINUOUS
  0
ENDTAB
  0
TABLE
  2
STYLE
  5
3
330
0
100
AcDbSymbolTable
 70
     1
  0
STYLE
  5
11
330
3
100
AcDbSymbolTableRecord
100
AcDbTextStyleTableRecord
  2
STANDARD
 70
     0
 40
0.0
 41
1.0
 50
0.0
 71
     0
 42
2.5
  3
txt
  4

  0
ENDTAB
  0
TABLE
  2
VIEW
  5
6
330
0
100
AcDbSymbolTable
 70
     0
  0
ENDTAB
  0
TABLE
  2
UCS
  5
7
330
0
100
AcDbSymbolTable
 70
     0
  0
ENDTAB
  0
TABLE
  2
APPID
  5
9
330
0
100
AcDbSymbolTable
 70
     2
  0
APPID
  5
12
330
9
100
AcDbSymbolTableRecord
100
AcDbRegAppTableRecord
  2
ACAD
 70
     0
  0
ENDTAB
  0
TABLE
  2
DIMSTYLE
  5
A
330
0
100
AcDbSymbolTable
 70
     1
  0
DIMSTYLE
105
27
330
A
100
AcDbSymbolTableRecord
100
AcDbDimStyleTableRecord
  2
ISO-25
 70
     0
  3

  4

  5

  6

  7

 40
1.0
 41
2.5
 42
0.625
 43
3.75
 44
1.25
 45
0.0
 46
0.0
 47
0.0
 48
0.0
140
2.5
141
2.5
142
0.0
143
0.03937007874016
144
1.0
145
0.0
146
1.0
147
0.625
 71
     0
 72
     0
 73
     0
 74
     0
 75
     0
 76
     0
 77
     1
 78
     8
170
     0
171
     3
172
     1
173
     0
174
     0
175
     0
176
     0
177
     0
178
     0
270
     2
271
     2
272
     2
273
     2
274
     3
340
11
275
     0
280
     0
281
     0
282
     0
283
     0
284
     8
285
     0
286
     0
287
     3
288
     0
  0
ENDTAB
  0
TABLE
  2
BLOCK_RECORD
  5
1
330
0
100
AcDbSymbolTable
 70
     1
  0
BLOCK_RECORD
  5
1F
330
1
100
AcDbSymbolTableRecord
100
AcDbBlockTableRecord
  2
*MODEL_SPACE
  0
BLOCK_RECORD
  5
1B
330
1
100
AcDbSymbolTableRecord
100
AcDbBlockTableRecord
  2
*PAPER_SPACE
  0
ENDTAB
  0
ENDSEC
  0
SECTION
  2
BLOCKS
  0
BLOCK
  5
20
330
1F
100
AcDbEntity
  8
0
100
AcDbBlockBegin
  2
*MODEL_SPACE
 70
     0
 10
0.0
 20
0.0
 30
0.0
  3
*MODEL_SPACE
  1

  0
ENDBLK
  5
21
330
1F
100
AcDbEntity
  8
0
100
AcDbBlockEnd
  0
BLOCK
  5
1C
330
1B
100
AcDbEntity
 67
     1
  8
0
100
AcDbBlockBegin
  2
*PAPER_SPACE
  1

  0
ENDBLK
  5
1D
330
1B
100
AcDbEntity
 67
     1
  8
0
100
AcDbBlockEnd
  0
ENDSEC
  0
SECTION
  2
ENTITIES
  0
LWPOLYLINE
  5
100
100
AcDbEntity
  8
main
 62
7
100
AcDbPolyline
 90
209
 70
1
 10
386.711839
 20
17.561216
 30
0.0
 10
386.309639
 20
17.620416
 30
0.0
 10
385.958863
 20
17.679616
 30
0.0
 10
385.665447
 20
17.737216
 30
0.0
 10
385.435311
 20
17.792416
 30
0.0
 10
385.274399
 20
17.842816
 30
0.0
 10
385.188623
 20
17.886816
 30
0.0
 10
385.183823
 20
17.922816
 30
0.0
 10
385.266127
 20
17.950016
 30
0.0
 10
385.314687
 20
17.982816
 30
0.0
 10
385.213343
 20
18.035616
 30
0.0
 10
384.974783
 20
18.106016
 30
0.0
 10
384.611711
 20
18.190736
 30
0.0
 10
384.136823
 20
18.287296
 30
0.0
 10
383.562839
 20
18.392976
 30
0.0
 10
382.902455
 20
18.505056
 30
0.0
 10
382.168375
 20
18.620736
 30
0.0
 10
369.147015
 20
21.423776
 30
0.0
 10
357.170879
 20
25.702656
 30
0.0
 10
346.265159
 20
31.436016
 30
0.0
 10
336.455039
 20
38.602416
 30
0.0
 10
327.765719
 20
47.180352
 30
0.0
 10
320.222391
 20
57.148408
 30
0.0
 10
313.850239
 20
68.485144
 30
0.0
 10
308.674463
 20
81.169112
 30
0.0
 10
307.850007
 20
83.702384
 30
0.0
 10
307.032063
 20
86.454704
 30
0.0
 10
306.233927
 20
89.371360
 30
0.0
 10
305.468887
 20
92.397664
 30
0.0
 10
304.750223
 20
95.478912
 30
0.0
 10
304.091231
 20
98.560416
 30
0.0
 10
303.505199
 20
101.587464
 30
0.0
 10
303.005407
 20
104.505360
 30
0.0
 10
302.706135
 20
106.518600
 30
0.0
 10
302.476823
 20
108.711480
 30
0.0
 10
302.304727
 20
111.702272
 30
0.0
 10
302.177127
 20
116.109240
 30
0.0
 10
302.081271
 20
122.550672
 30
0.0
 10
302.004471
 20
131.644832
 30
0.0
 10
301.933911
 20
144.010000
 30
0.0
 10
301.856951
 20
160.264440
 30
0.0
 10
301.776615
 20
178.185512
 30
0.0
 10
301.699175
 20
191.396104
 30
0.0
 10
301.587215
 20
200.658768
 30
0.0
 10
301.403407
 20
206.736056
 30
0.0
 10
301.110383
 20
210.390520
 30
0.0
 10
300.670775
 20
212.384712
 30
0.0
 10
300.047223
 20
213.481176
 30
0.0
 10
299.202359
 20
214.442472
 30
0.0
 10
298.401407
 20
215.302408
 30
0.0
 10
297.549831
 20
215.996392
 30
0.0
 10
296.570607
 20
216.546392
 30
0.0
 10
295.386759
 20
216.974368
 30
0.0
 10
293.921271
 20
217.302304
 30
0.0
 10
292.097159
 20
217.552160
 30
0.0
 10
289.837407
 20
217.745912
 30
0.0
 10
287.065023
 20
217.905528
 30
0.0
 10
266.128935
 20
219.715928
 30
0.0
 10
245.720071
 20
223.060472
 30
0.0
 10
225.867111
 20
227.928384
 30
0.0
 10
206.598743
 20
234.308864
 30
0.0
 10
187.943647
 20
242.191144
 30
0.0
 10
169.930511
 20
251.564424
 30
0.0
 10
152.587999
 20
262.417928
 30
0.0
 10
135.944815
 20
274.740872
 30
0.0
 10
130.068663
 20
279.641768
 30
0.0
 10
124.101399
 20
284.983328
 30
0.0
 10
118.124303
 20
290.681016
 30
0.0
 10
112.218655
 20
296.650296
 30
0.0
 10
106.465735
 20
302.806640
 30
0.0
 10
100.946823
 20
309.065512
 30
0.0
 10
95.743183
 20
315.342384
 30
0.0
 10
90.936101
 20
321.552720
 30
0.0
 10
81.291126
 20
335.402200
 30
0.0
 10
72.616864
 20
349.750536
 30
0.0
 10
64.925338
 20
364.567712
 30
0.0
 10
58.228570
 20
379.823704
 30
0.0
 10
52.538586
 20
395.488520
 30
0.0
 10
47.867409
 20
411.532128
 30
0.0
 10
44.227060
 20
427.924536
 30
0.0
 10
41.629565
 20
444.635720
 30
0.0
 10
41.455797
 20
446.101296
 30
0.0
 10
41.283000
 20
447.655248
 30
0.0
 10
41.115721
 20
449.250232
 30
0.0
 10
40.958505
 20
450.838880
 30
0.0
 10
40.815899
 20
452.373832
 30
0.0
 10
40.692448
 20
453.807720
 30
0.0
 10
40.592698
 20
455.093192
 30
0.0
 10
40.521194
 20
456.182880
 30
0.0
 10
40.460986
 20
457.116968
 30
0.0
 10
40.393602
 20
457.956504
 30
0.0
 10
40.321322
 20
458.685376
 30
0.0
 10
40.246418
 20
459.287504
 30
0.0
 10
40.171170
 20
459.746792
 30
0.0
 10
40.097858
 20
460.047144
 30
0.0
 10
40.028754
 20
460.172464
 30
0.0
 10
39.966130
 20
460.106704
 30
0.0
 10
39.786886
 20
460.385624
 30
0.0
 10
39.622849
 20
462.063880
 30
0.0
 10
39.481578
 20
464.830912
 30
0.0
 10
39.370635
 20
468.376168
 30
0.0
 10
39.297579
 20
472.389104
 30
0.0
 10
39.269971
 20
476.559152
 30
0.0
 10
39.295371
 20
480.575768
 30
0.0
 10
39.381342
 20
484.128392
 30
0.0
 10
39.447998
 20
485.760936
 30
0.0
 10
39.521350
 20
487.252128
 30
0.0
 10
39.598990
 20
488.571608
 30
0.0
 10
39.678510
 20
489.689008
 30
0.0
 10
39.757518
 20
490.573984
 30
0.0
 10
39.833598
 20
491.196152
 30
0.0
 10
39.904358
 20
491.525176
 30
0.0
 10
39.967382
 20
491.530776
 30
0.0
 10
40.029750
 20
491.465336
 30
0.0
 10
40.098622
 20
491.590976
 30
0.0
 10
40.171726
 20
491.891616
 30
0.0
 10
40.246790
 20
492.351152
 30
0.0
 10
40.321542
 20
492.953488
 30
0.0
 10
40.393710
 20
493.682520
 30
0.0
 10
40.461022
 20
494.522152
 30
0.0
 10
40.521206
 20
495.456280
 30
0.0
 10
40.806462
 20
499.347392
 30
0.0
 10
41.233536
 20
503.632504
 30
0.0
 10
41.788154
 20
508.215384
 30
0.0
 10
42.456045
 20
512.999808
 30
0.0
 10
43.222934
 20
517.889528
 30
0.0
 10
44.074550
 20
522.788312
 30
0.0
 10
44.996620
 20
527.599936
 30
0.0
 10
45.974870
 20
532.228160
 30
0.0
 10
51.956188
 20
554.419464
 30
0.0
 10
59.832098
 20
575.849264
 30
0.0
 10
69.533850
 20
596.411136
 30
0.0
 10
80.992695
 20
615.998632
 30
0.0
 10
94.139889
 20
634.505320
 30
0.0
 10
108.906673
 20
651.824768
 30
0.0
 10
125.224297
 20
667.850528
 30
0.0
 10
143.024025
 20
682.476184
 30
0.0
 10
166.064545
 20
697.910240
 30
0.0
 10
190.373313
 20
710.672088
 30
0.0
 10
215.741985
 20
720.715632
 30
0.0
 10
241.962193
 20
727.994752
 30
0.0
 10
268.825585
 20
732.463336
 30
0.0
 10
296.123785
 20
734.075272
 30
0.0
 10
323.648449
 20
732.784456
 30
0.0
 10
351.191217
 20
728.544768
 30
0.0
 10
356.556713
 20
727.329880
 30
0.0
 10
362.502913
 20
725.821248
 30
0.0
 10
368.714521
 20
724.114464
 30
0.0
 10
374.876225
 20
722.305128
 30
0.0
 10
380.672721
 20
720.488840
 30
0.0
 10
385.788705
 20
718.761200
 30
0.0
 10
389.908865
 20
717.217800
 30
0.0
 10
392.717905
 20
715.954240
 30
0.0
 10
393.821073
 20
715.306352
 30
0.0
 10
394.867713
 20
714.570696
 30
0.0
 10
395.852385
 20
713.752984
 30
0.0
 10
396.769657
 20
712.858968
 30
0.0
 10
397.614097
 20
711.894376
 30
0.0
 10
398.380249
 20
710.864952
 30
0.0
 10
399.062697
 20
709.776416
 30
0.0
 10
399.656001
 20
708.634512
 30
0.0
 10
399.793353
 20
708.341512
 30
0.0
 10
399.930705
 20
708.048512
 30
0.0
 10
400.068065
 20
707.755512
 30
0.0
 10
400.205417
 20
707.462504
 30
0.0
 10
400.342769
 20
707.169504
 30
0.0
 10
400.480121
 20
706.876504
 30
0.0
 10
400.617481
 20
706.583504
 30
0.0
 10
400.754833
 20
706.290504
 30
0.0
 10
400.767873
 20
663.775048
 30
0.0
 10
400.780913
 20
621.259600
 30
0.0
 10
400.793953
 20
578.744144
 30
0.0
 10
400.806993
 20
536.228688
 30
0.0
 10
400.820033
 20
493.713240
 30
0.0
 10
400.833073
 20
451.197784
 30
0.0
 10
400.846113
 20
408.682336
 30
0.0
 10
400.859153
 20
366.166880
 30
0.0
 10
400.886513
 20
264.187448
 30
0.0
 10
400.895633
 20
184.603728
 30
0.0
 10
400.882353
 20
124.673912
 30
0.0
 10
400.842433
 20
81.656184
 30
0.0
 10
400.771633
 20
52.808736
 30
0.0
 10
400.665745
 20
35.389784
 30
0.0
 10
400.520545
 20
26.657464
 30
0.0
 10
400.331801
 20
23.869944
 30
0.0
 10
400.027601
 20
23.004824
 30
0.0
 10
399.627097
 20
22.141544
 30
0.0
 10
399.151449
 20
21.308264
 30
0.0
 10
398.621801
 20
20.533464
 30
0.0
 10
398.059305
 20
19.845464
 30
0.0
 10
397.485129
 20
19.272504
 30
0.0
 10
396.920425
 20
18.842984
 30
0.0
 10
396.386337
 20
18.585224
 30
0.0
 10
396.228505
 20
18.526824
 30
0.0
 10
396.089385
 20
18.459624
 30
0.0
 10
395.971433
 20
18.385224
 30
0.0
 10
395.877121
 20
18.306824
 30
0.0
 10
395.808881
 20
18.226184
 30
0.0
 10
395.769201
 20
18.145944
 30
0.0
 10
395.760561
 20
18.068344
 30
0.0
 10
395.785441
 20
17.996344
 30
0.0
 10
395.717921
 20
17.724744
 30
0.0
 10
395.196713
 20
17.508104
 30
0.0
 10
394.296273
 20
17.350104
 30
0.0
 10
393.091057
 20
17.254184
 30
0.0
 10
391.655521
 20
17.223784
 30
0.0
 10
390.064113
 20
17.262984
 30
0.0
 10
388.391289
 20
17.374744
 30
0.0
 10
386.711839
 20
17.561216
 30
0.0
  0
LWPOLYLINE
  5
101
100
AcDbEntity
  8
main
 62
7
100
AcDbPolyline
 90
97
 70
1
 10
298.997151
 20
320.995792
 30
0.0
 10
299.273591
 20
321.178264
 30
0.0
 10
299.561847
 20
321.405288
 30
0.0
 10
299.853431
 20
321.667816
 30
0.0
 10
300.139879
 20
321.956824
 30
0.0
 10
300.412703
 20
322.263296
 30
0.0
 10
300.663415
 20
322.578184
 30
0.0
 10
300.883551
 20
322.892472
 30
0.0
 10
301.064623
 20
323.197120
 30
0.0
 10
301.312055
 20
324.139984
 30
0.0
 10
301.499831
 20
327.008792
 30
0.0
 10
301.636135
 20
333.434824
 30
0.0
 10
301.729175
 20
345.049368
 30
0.0
 10
301.787175
 20
363.483704
 30
0.0
 10
301.818295
 20
390.369112
 30
0.0
 10
301.830695
 20
427.336880
 30
0.0
 10
301.832295
 20
476.018288
 30
0.0
 10
301.829895
 20
525.686184
 30
0.0
 10
301.817735
 20
563.113128
 30
0.0
 10
301.786295
 20
590.051472
 30
0.0
 10
301.726135
 20
608.253560
 30
0.0
 10
301.627879
 20
619.471752
 30
0.0
 10
301.482047
 20
625.458392
 30
0.0
 10
301.279199
 20
627.965832
 30
0.0
 10
301.009911
 20
628.746416
 30
0.0
 10
300.283927
 20
629.777432
 30
0.0
 10
299.445943
 20
630.568760
 30
0.0
 10
298.389743
 20
631.138656
 30
0.0
 10
297.009111
 20
631.505376
 30
0.0
 10
295.197831
 20
631.687168
 30
0.0
 10
292.849687
 20
631.702288
 30
0.0
 10
289.858447
 20
631.568984
 30
0.0
 10
286.117903
 20
631.305512
 30
0.0
 10
271.933591
 20
629.561432
 30
0.0
 10
258.105903
 20
626.576592
 30
0.0
 10
244.694671
 20
622.379144
 30
0.0
 10
231.759703
 20
616.997216
 30
0.0
 10
219.360815
 20
610.458968
 30
0.0
 10
207.557823
 20
602.792536
 30
0.0
 10
196.410543
 20
594.026072
 30
0.0
 10
185.978791
 20
584.187712
 30
0.0
 10
181.856415
 20
579.785176
 30
0.0
 10
177.980263
 20
575.326064
 30
0.0
 10
174.330615
 20
570.782592
 30
0.0
 10
170.887791
 20
566.126960
 30
0.0
 10
167.632071
 20
561.331360
 30
0.0
 10
164.543759
 20
556.368008
 30
0.0
 10
161.603159
 20
551.209096
 30
0.0
 10
158.790559
 20
545.826832
 30
0.0
 10
156.151447
 20
540.331376
 30
0.0
 10
153.772255
 20
534.898800
 30
0.0
 10
151.641319
 20
529.493552
 30
0.0
 10
149.746991
 20
524.080072
 30
0.0
 10
148.077615
 20
518.622792
 30
0.0
 10
146.621519
 20
513.086160
 30
0.0
 10
145.367063
 20
507.434616
 30
0.0
 10
144.302575
 20
501.632600
 30
0.0
 10
143.743823
 20
498.115672
 30
0.0
 10
143.290671
 20
494.923032
 30
0.0
 10
142.933527
 20
491.933992
 30
0.0
 10
142.662823
 20
489.027840
 30
0.0
 10
142.468951
 20
486.083880
 30
0.0
 10
142.342343
 20
482.981424
 30
0.0
 10
142.273383
 20
479.599768
 30
0.0
 10
142.252503
 20
475.818216
 30
0.0
 10
142.273383
 20
472.036664
 30
0.0
 10
142.342343
 20
468.655008
 30
0.0
 10
142.468951
 20
465.552552
 30
0.0
 10
142.662823
 20
462.608592
 30
0.0
 10
142.933535
 20
459.702440
 30
0.0
 10
143.290671
 20
456.713400
 30
0.0
 10
143.743823
 20
453.520760
 30
0.0
 10
144.302575
 20
450.003832
 30
0.0
 10
147.560895
 20
435.024232
 30
0.0
 10
152.275823
 20
420.513480
 30
0.0
 10
158.384767
 20
406.571512
 30
0.0
 10
165.825111
 20
393.298264
 30
0.0
 10
174.534255
 20
380.793664
 30
0.0
 10
184.449591
 20
369.157632
 30
0.0
 10
195.508511
 20
358.490112
 30
0.0
 10
207.648415
 20
348.891024
 30
0.0
 10
216.609543
 20
342.957736
 30
0.0
 10
225.929959
 20
337.681672
 30
0.0
 10
235.584655
 20
333.071728
 30
0.0
 10
245.548639
 20
329.136792
 30
0.0
 10
255.796887
 20
325.885752
 30
0.0
 10
266.304407
 20
323.327504
 30
0.0
 10
277.046191
 20
321.470928
 30
0.0
 10
287.997231
 20
320.324912
 30
0.0
 10
290.247279
 20
320.183392
 30
0.0
 10
292.197887
 20
320.103248
 30
0.0
 10
293.873759
 20
320.085968
 30
0.0
 10
295.299591
 20
320.133088
 30
0.0
 10
296.500103
 20
320.246136
 30
0.0
 10
297.499999
 20
320.426584
 30
0.0
 10
298.323975
 20
320.675960
 30
0.0
 10
298.997151
 20
320.995792
 30
0.0
  0
LWPOLYLINE
  5
102
100
AcDbEntity
  8
main
 62
7
100
AcDbPolyline
 90
129
 70
1
 10
455.504399
 20
274.855984
 30
0.0
 10
455.336287
 20
275.049376
 30
0.0
 10
455.166327
 20
275.291808
 30
0.0
 10
454.999175
 20
275.573552
 30
0.0
 10
454.839487
 20
275.884856
 30
0.0
 10
454.691927
 20
276.215992
 30
0.0
 10
454.561143
 20
276.557200
 30
0.0
 10
454.451799
 20
276.898752
 30
0.0
 10
454.368559
 20
277.230912
 30
0.0
 10
454.301679
 20
281.580440
 30
0.0
 10
454.239359
 20
293.435888
 30
0.0
 10
454.182799
 20
311.980208
 30
0.0
 10
454.133519
 20
336.396336
 30
0.0
 10
454.092799
 20
365.867216
 30
0.0
 10
454.061999
 20
399.575784
 30
0.0
 10
454.042559
 20
436.704984
 30
0.0
 10
454.036159
 20
476.437760
 30
0.0
 10
454.037759
 20
541.439072
 30
0.0
 10
454.049839
 20
590.373752
 30
0.0
 10
454.081439
 20
625.547912
 30
0.0
 10
454.141999
 20
649.267664
 30
0.0
 10
454.240935
 20
663.839120
 30
0.0
 10
454.387623
 20
671.568392
 30
0.0
 10
454.591447
 20
674.761592
 30
0.0
 10
454.861823
 20
675.724824
 30
0.0
 10
455.518191
 20
676.741360
 30
0.0
 10
456.307999
 20
677.352200
 30
0.0
 10
457.282167
 20
677.539048
 30
0.0
 10
458.491639
 20
677.283624
 30
0.0
 10
459.987359
 20
676.567616
 30
0.0
 10
461.820239
 20
675.372744
 30
0.0
 10
464.041231
 20
673.680720
 30
0.0
 10
466.701263
 20
671.473240
 30
0.0
 10
469.546447
 20
668.945560
 30
0.0
 10
472.972999
 20
665.742136
 30
0.0
 10
476.773455
 20
662.070992
 30
0.0
 10
480.740319
 20
658.140152
 30
0.0
 10
484.666135
 20
654.157624
 30
0.0
 10
488.343415
 20
650.331432
 30
0.0
 10
491.564679
 20
646.869592
 30
0.0
 10
494.122463
 20
643.980120
 30
0.0
 10
505.567583
 20
629.549232
 30
0.0
 10
515.925007
 20
614.446664
 30
0.0
 10
525.164831
 20
598.738104
 30
0.0
 10
533.257167
 20
582.489216
 30
0.0
 10
540.172111
 20
565.765688
 30
0.0
 10
545.879775
 20
548.633184
 30
0.0
 10
550.350255
 20
531.157384
 30
0.0
 10
553.553663
 20
513.403960
 30
0.0
 10
553.913247
 20
510.807880
 30
0.0
 10
554.257247
 20
508.162184
 30
0.0
 10
554.576183
 20
505.552832
 30
0.0
 10
554.860591
 20
503.065768
 30
0.0
 10
555.101015
 20
500.786928
 30
0.0
 10
555.287975
 20
498.802256
 30
0.0
 10
555.412015
 20
497.197712
 30
0.0
 10
555.463695
 20
496.059224
 30
0.0
 10
555.475455
 20
495.578664
 30
0.0
 10
555.495855
 20
495.191624
 30
0.0
 10
555.524975
 20
494.897496
 30
0.0
 10
555.563055
 20
494.695672
 30
0.0
 10
555.610335
 20
494.585544
 30
0.0
 10
555.666895
 20
494.566504
 30
0.0
 10
555.732975
 20
494.637944
 30
0.0
 10
555.808735
 20
494.799288
 30
0.0
 10
555.881295
 20
494.872168
 30
0.0
 10
555.957135
 20
494.738704
 30
0.0
 10
556.034815
 20
494.410536
 30
0.0
 10
556.112815
 20
493.899288
 30
0.0
 10
556.189615
 20
493.216584
 30
0.0
 10
556.263695
 20
492.374048
 30
0.0
 10
556.333535
 20
491.383304
 30
0.0
 10
556.397695
 20
490.255968
 30
0.0
 10
556.567111
 20
485.536744
 30
0.0
 10
556.651199
 20
480.096504
 30
0.0
 10
556.657599
 20
474.380528
 30
0.0
 10
556.594879
 20
468.834128
 30
0.0
 10
556.470663
 20
463.902592
 30
0.0
 10
556.292895
 20
460.031216
 30
0.0
 10
556.069535
 20
457.665296
 30
0.0
 10
555.808511
 20
457.250128
 30
0.0
 10
555.732751
 20
457.411472
 30
0.0
 10
555.666671
 20
457.482912
 30
0.0
 10
555.610111
 20
457.463872
 30
0.0
 10
555.562831
 20
457.353744
 30
0.0
 10
555.524671
 20
457.151920
 30
0.0
 10
555.495551
 20
456.857784
 30
0.0
 10
555.475231
 20
456.470744
 30
0.0
 10
555.463551
 20
455.990184
 30
0.0
 10
555.411871
 20
454.851704
 30
0.0
 10
555.287831
 20
453.247152
 30
0.0
 10
555.100871
 20
451.262488
 30
0.0
 10
554.860447
 20
448.983648
 30
0.0
 10
554.576039
 20
446.496576
 30
0.0
 10
554.257103
 20
443.887224
 30
0.0
 10
553.913111
 20
441.241536
 30
0.0
 10
553.553519
 20
438.645448
 30
0.0
 10
552.527759
 20
432.166512
 30
0.0
 10
551.293135
 20
425.565008
 30
0.0
 10
549.863367
 20
418.894944
 30
0.0
 10
548.252207
 20
412.210320
 30
0.0
 10
546.473375
 20
405.565152
 30
0.0
 10
544.540615
 20
399.013440
 30
0.0
 10
542.467655
 20
392.609192
 30
0.0
 10
540.268239
 20
386.406424
 30
0.0
 10
535.992615
 20
375.600448
 30
0.0
 10
531.291367
 20
365.076848
 30
0.0
 10
526.162919
 20
354.832936
 30
0.0
 10
520.605711
 20
344.866040
 30
0.0
 10
514.618151
 20
335.173472
 30
0.0
 10
508.198679
 20
325.752544
 30
0.0
 10
501.345711
 20
316.600568
 30
0.0
 10
494.057679
 20
307.714880
 30
0.0
 10
489.574663
 20
302.678184
 30
0.0
 10
484.585071
 20
297.393552
 30
0.0
 10
479.357343
 20
292.114336
 30
0.0
 10
474.159895
 20
287.093872
 30
0.0
 10
469.261175
 20
282.585520
 30
0.0
 10
464.929615
 20
278.842624
 30
0.0
 10
461.433639
 20
276.118536
 30
0.0
 10
459.041679
 20
274.666608
 30
0.0
 10
458.373487
 20
274.403016
 30
0.0
 10
457.807927
 20
274.219464
 30
0.0
 10
457.325967
 20
274.116968
 30
0.0
 10
456.908583
 20
274.096568
 30
0.0
 10
456.536743
 20
274.159208
 30
0.0
 10
456.191431
 20
274.305984
 30
0.0
 10
455.853599
 20
274.537888
 30
0.0
 10
455.504399
 20
274.855984
 30
0.0
  0
LWPOLYLINE
  5
103
100
AcDbEntity
  8
main
 62
7
100
AcDbPolyline
 90
113
 70
1
 10
447.014239
 20
729.073464
 30
0.0
 10
445.866791
 20
729.249200
 30
0.0
 10
444.444423
 20
729.523320
 30
0.0
 10
442.840279
 20
729.872856
 30
0.0
 10
441.147519
 20
730.274840
 30
0.0
 10
439.459311
 20
730.706304
 30
0.0
 10
437.868799
 20
731.144296
 30
0.0
 10
436.469151
 20
731.565840
 30
0.0
 10
435.353519
 20
731.947976
 30
0.0
 10
432.948871
 20
732.919432
 30
0.0
 10
430.633463
 20
733.991480
 30
0.0
 10
428.398823
 20
735.169472
 30
0.0
 10
426.236495
 20
736.458760
 30
0.0
 10
424.137999
 20
737.864696
 30
0.0
 10
422.094879
 20
739.392640
 30
0.0
 10
420.098663
 20
741.047944
 30
0.0
 10
418.140887
 20
742.835952
 30
0.0
 10
415.137743
 20
745.925048
 30
0.0
 10
412.453543
 20
749.147464
 30
0.0
 10
410.083927
 20
752.511424
 30
0.0
 10
408.024543
 20
756.025136
 30
0.0
 10
406.271015
 20
759.696824
 30
0.0
 10
404.818991
 20
763.534704
 30
0.0
 10
403.664103
 20
767.546997
 30
0.0
 10
402.801999
 20
771.741913
 30
0.0
 10
402.532871
 20
773.837458
 30
0.0
 10
402.360703
 20
776.239701
 30
0.0
 10
402.283023
 20
778.835427
 30
0.0
 10
402.297263
 20
781.511419
 30
0.0
 10
402.400935
 20
784.154463
 30
0.0
 10
402.591535
 20
786.651341
 30
0.0
 10
402.866551
 20
788.888838
 30
0.0
 10
403.223471
 20
790.753737
 30
0.0
 10
405.523111
 20
798.066458
 30
0.0
 10
408.713967
 20
804.828838
 30
0.0
 10
412.724935
 20
810.970202
 30
0.0
 10
417.484927
 20
816.419878
 30
0.0
 10
422.922831
 20
821.107190
 30
0.0
 10
428.967551
 20
824.961467
 30
0.0
 10
435.547999
 20
827.912034
 30
0.0
 10
442.593071
 20
829.888218
 30
0.0
 10
443.355999
 20
830.048011
 30
0.0
 10
444.058631
 20
830.206191
 30
0.0
 10
444.686247
 20
830.358645
 30
0.0
 10
445.224119
 20
830.501259
 30
0.0
 10
445.657527
 20
830.629921
 30
0.0
 10
445.971727
 20
830.740517
 30
0.0
 10
446.152007
 20
830.828934
 30
0.0
 10
446.183607
 20
830.891062
 30
0.0
 10
446.214167
 20
830.943446
 30
0.0
 10
446.391399
 20
831.003950
 30
0.0
 10
446.700791
 20
831.070422
 30
0.0
 10
447.127815
 20
831.140702
 30
0.0
 10
447.657975
 20
831.212630
 30
0.0
 10
448.276751
 20
831.284054
 30
0.0
 10
448.969623
 20
831.352814
 30
0.0
 10
449.722087
 20
831.416758
 30
0.0
 10
451.338007
 20
831.502645
 30
0.0
 10
453.101183
 20
831.529501
 30
0.0
 10
454.894855
 20
831.503949
 30
0.0
 10
456.602247
 20
831.432597
 30
0.0
 10
458.106583
 20
831.322056
 30
0.0
 10
459.291087
 20
831.178942
 30
0.0
 10
460.038999
 20
831.009866
 30
0.0
 10
460.233527
 20
830.821445
 30
0.0
 10
460.236727
 20
830.753093
 30
0.0
 10
460.321199
 20
830.678533
 30
0.0
 10
460.479151
 20
830.600165
 30
0.0
 10
460.702927
 20
830.520397
 30
0.0
 10
460.984855
 20
830.441629
 30
0.0
 10
461.317279
 20
830.366261
 30
0.0
 10
461.692519
 20
830.296709
 30
0.0
 10
462.102927
 20
830.235365
 30
0.0
 10
463.519711
 20
829.998720
 30
0.0
 10
465.087959
 20
829.649496
 30
0.0
 10
466.769023
 20
829.200217
 30
0.0
 10
468.524215
 20
828.663407
 30
0.0
 10
470.314895
 20
828.051592
 30
0.0
 10
472.102391
 20
827.377298
 30
0.0
 10
473.848031
 20
826.653046
 30
0.0
 10
475.513167
 20
825.891366
 30
0.0
 10
480.829975
 20
822.932106
 30
0.0
 10
485.698159
 20
819.409305
 30
0.0
 10
490.084383
 20
815.366838
 30
0.0
 10
493.955319
 20
810.848578
 30
0.0
 10
497.277623
 20
805.898402
 30
0.0
 10
500.017983
 20
800.560182
 30
0.0
 10
502.143047
 20
794.877794
 30
0.0
 10
503.619487
 20
788.895110
 30
0.0
 10
503.947815
 20
786.560032
 30
0.0
 10
504.145391
 20
783.873116
 30
0.0
 10
504.216591
 20
780.955244
 30
0.0
 10
504.165791
 20
777.927294
 30
0.0
 10
503.997415
 20
774.910148
 30
0.0
 10
503.715815
 20
772.024685
 30
0.0
 10
503.325375
 20
769.391784
 30
0.0
 10
502.830479
 20
767.132326
 30
0.0
 10
499.879471
 20
758.899774
 30
0.0
 10
495.726727
 20
751.447790
 30
0.0
 10
490.505463
 20
744.878766
 30
0.0
 10
484.348879
 20
739.295070
 30
0.0
 10
477.390183
 20
734.799086
 30
0.0
 10
469.762591
 20
731.493174
 30
0.0
 10
461.599295
 20
729.479718
 30
0.0
 10
453.033519
 20
728.861102
 30
0.0
 10
452.047959
 20
728.876622
 30
0.0
 10
451.079623
 20
728.897022
 30
0.0
 10
450.153215
 20
728.921422
 30
0.0
 10
449.293423
 20
728.949022
 30
0.0
 10
448.524919
 20
728.978862
 30
0.0
 10
447.872399
 20
729.010142
 30
0.0
 10
447.360559
 20
729.041982
 30
0.0
 10
447.014239
 20
729.073464
 30
0.0
  0
ENDSEC
  0
SECTION
  2
OBJECTS
  0
DICTIONARY
  5
C
330
0
100
AcDbDictionary
  3
ACAD_GROUP
350
D
  3
ACAD_MLINESTYLE
350
17
  0
DICTIONARY
  5
D
330
C
100
AcDbDictionary
  0
DICTIONARY
  5
1A
330
C
100
AcDbDictionary
  0
DICTIONARY
  5
17
330
C
100
AcDbDictionary
  3
STANDARD
350
18
  0
DICTIONARY
  5
19
330
C
100
AcDbDictionary
  0
ENDSEC
  0
EOF
